<svg id="visual" viewBox="0 0 900 600" width="900" height="600" xmlns="http://www.w3.org/2000/svg" xmlns:xlink="http://www.w3.org/1999/xlink" version="1.1"><rect x="0" y="0" width="900" height="600" fill="#140021"></rect><path d="M0 353L129 353L129 311L257 311L257 370L386 370L386 311L514 311L514 275L643 275L643 378L771 378L771 328L900 328L900 376L900 601L900 601L771 601L771 601L643 601L643 601L514 601L514 601L386 601L386 601L257 601L257 601L129 601L129 601L0 601Z" fill="#9900ff"></path><path d="M0 384L129 384L129 370L257 370L257 412L386 412L386 370L514 370L514 433L643 433L643 387L771 387L771 426L900 426L900 446L900 601L900 601L771 601L771 601L643 601L643 601L514 601L514 601L386 601L386 601L257 601L257 601L129 601L129 601L0 601Z" fill="#7700c6"></path><path d="M0 484L129 484L129 492L257 492L257 460L386 460L386 539L514 539L514 535L643 535L643 522L771 522L771 492L900 492L900 510L900 601L900 601L771 601L771 601L643 601L643 601L514 601L514 601L386 601L386 601L257 601L257 601L129 601L129 601L0 601Z" fill="#560090"></path></svg>