<svg id="visual" viewBox="0 0 900 600" width="900" height="600" xmlns="http://www.w3.org/2000/svg" xmlns:xlink="http://www.w3.org/1999/xlink" version="1.1"><rect x="0" y="0" width="900" height="600" fill="#4c1e92"></rect><path d="M0 414L129 418L257 365L386 406L514 396L643 440L771 377L900 392L900 601L771 601L643 601L514 601L386 601L257 601L129 601L0 601Z" fill="#140021"></path><path d="M0 453L129 460L257 419L386 428L514 475L643 465L771 479L900 443L900 601L771 601L643 601L514 601L386 601L257 601L129 601L0 601Z" fill="#220d3b"></path><path d="M0 469L129 463L257 508L386 502L514 462L643 440L771 468L900 462L900 601L771 601L643 601L514 601L386 601L257 601L129 601L0 601Z" fill="#351057"></path><path d="M0 483L129 517L257 529L386 484L514 506L643 498L771 487L900 494L900 601L771 601L643 601L514 601L386 601L257 601L129 601L0 601Z" fill="#4b1074"></path><path d="M0 554L129 556L257 542L386 561L514 530L643 541L771 562L900 539L900 601L771 601L643 601L514 601L386 601L257 601L129 601L0 601Z" fill="#630a91"></path></svg>