<svg id="visual" viewBox="0 0 900 600" width="900" height="600" xmlns="http://www.w3.org/2000/svg" xmlns:xlink="http://www.w3.org/1999/xlink" version="1.1"><g stroke-width="1" stroke-linejoin="bevel"><path d="M409 305L337 308L404 400Z" fill="#120220" stroke="#120220"></path><path d="M337 308L291 388L404 400Z" fill="#2a1454" stroke="#2a1454"></path><path d="M404 400L506 385L409 305Z" fill="#341766" stroke="#341766"></path><path d="M507 280L412 218L409 305Z" fill="#7f1fdc" stroke="#7f1fdc"></path><path d="M409 305L412 218L337 308Z" fill="#211142" stroke="#211142"></path><path d="M506 385L507 280L409 305Z" fill="#120220" stroke="#120220"></path><path d="M412 218L328 204L337 308Z" fill="#631fb4" stroke="#631fb4"></path><path d="M194 319L205 412L291 388Z" fill="#7f1fdc" stroke="#7f1fdc"></path><path d="M291 388L390 525L404 400Z" fill="#120220" stroke="#120220"></path><path d="M404 400L485 531L506 385Z" fill="#190c30" stroke="#190c30"></path><path d="M194 319L291 388L337 308Z" fill="#190c30" stroke="#190c30"></path><path d="M291 388L279 531L390 525Z" fill="#341766" stroke="#341766"></path><path d="M328 204L194 319L337 308Z" fill="#190c30" stroke="#190c30"></path><path d="M507 280L503 205L412 218Z" fill="#4a1c8c" stroke="#4a1c8c"></path><path d="M412 218L414 105L328 204Z" fill="#2a1454" stroke="#2a1454"></path><path d="M235 504L279 531L291 388Z" fill="#3f1a79" stroke="#3f1a79"></path><path d="M205 412L235 504L291 388Z" fill="#120220" stroke="#120220"></path><path d="M403 600L485 531L390 525Z" fill="#341766" stroke="#341766"></path><path d="M390 525L485 531L404 400Z" fill="#7f1fdc" stroke="#7f1fdc"></path><path d="M611 388L596 292L506 385Z" fill="#561ea0" stroke="#561ea0"></path><path d="M506 385L596 292L507 280Z" fill="#3f1a79" stroke="#3f1a79"></path><path d="M507 280L596 292L503 205Z" fill="#120220" stroke="#120220"></path><path d="M607 472L611 388L506 385Z" fill="#3f1a79" stroke="#3f1a79"></path><path d="M492 84L414 105L503 205Z" fill="#561ea0" stroke="#561ea0"></path><path d="M503 205L414 105L412 218Z" fill="#120220" stroke="#120220"></path><path d="M177 191L138 273L194 319Z" fill="#211142" stroke="#211142"></path><path d="M177 191L194 319L328 204Z" fill="#4a1c8c" stroke="#4a1c8c"></path><path d="M194 319L114 398L205 412Z" fill="#120220" stroke="#120220"></path><path d="M205 412L129 537L235 504Z" fill="#7120c8" stroke="#7120c8"></path><path d="M280 600L403 600L390 525Z" fill="#2a1454" stroke="#2a1454"></path><path d="M294 98L177 191L328 204Z" fill="#120220" stroke="#120220"></path><path d="M574 600L607 472L485 531Z" fill="#3f1a79" stroke="#3f1a79"></path><path d="M485 531L607 472L506 385Z" fill="#631fb4" stroke="#631fb4"></path><path d="M138 273L114 398L194 319Z" fill="#7120c8" stroke="#7120c8"></path><path d="M414 105L294 98L328 204Z" fill="#2a1454" stroke="#2a1454"></path><path d="M222 600L280 600L279 531Z" fill="#3f1a79" stroke="#3f1a79"></path><path d="M279 531L280 600L390 525Z" fill="#2a1454" stroke="#2a1454"></path><path d="M222 600L279 531L235 504Z" fill="#120220" stroke="#120220"></path><path d="M403 600L493 600L485 531Z" fill="#341766" stroke="#341766"></path><path d="M631 186L563 137L503 205Z" fill="#4a1c8c" stroke="#4a1c8c"></path><path d="M563 137L492 84L503 205Z" fill="#120220" stroke="#120220"></path><path d="M414 105L425 0L294 98Z" fill="#211142" stroke="#211142"></path><path d="M129 537L222 600L235 504Z" fill="#4a1c8c" stroke="#4a1c8c"></path><path d="M177 191L134 173L138 273Z" fill="#3f1a79" stroke="#3f1a79"></path><path d="M138 273L0 335L114 398Z" fill="#190c30" stroke="#190c30"></path><path d="M207 76L134 173L177 191Z" fill="#341766" stroke="#341766"></path><path d="M596 292L631 186L503 205Z" fill="#631fb4" stroke="#631fb4"></path><path d="M489 0L425 0L492 84Z" fill="#341766" stroke="#341766"></path><path d="M683 300L631 186L596 292Z" fill="#2a1454" stroke="#2a1454"></path><path d="M683 300L596 292L611 388Z" fill="#3f1a79" stroke="#3f1a79"></path><path d="M114 398L129 537L205 412Z" fill="#211142" stroke="#211142"></path><path d="M739 380L683 300L611 388Z" fill="#341766" stroke="#341766"></path><path d="M493 600L574 600L485 531Z" fill="#120220" stroke="#120220"></path><path d="M607 472L714 460L611 388Z" fill="#190c30" stroke="#190c30"></path><path d="M279 0L207 76L294 98Z" fill="#120220" stroke="#120220"></path><path d="M294 98L207 76L177 191Z" fill="#7f1fdc" stroke="#7f1fdc"></path><path d="M683 300L685 191L631 186Z" fill="#7120c8" stroke="#7120c8"></path><path d="M631 186L668 115L563 137Z" fill="#4a1c8c" stroke="#4a1c8c"></path><path d="M489 0L492 84L600 0Z" fill="#2a1454" stroke="#2a1454"></path><path d="M492 84L425 0L414 105Z" fill="#631fb4" stroke="#631fb4"></path><path d="M668 600L714 460L607 472Z" fill="#2a1454" stroke="#2a1454"></path><path d="M683 300L792 228L685 191Z" fill="#190c30" stroke="#190c30"></path><path d="M129 537L114 600L222 600Z" fill="#631fb4" stroke="#631fb4"></path><path d="M0 515L114 600L129 537Z" fill="#120220" stroke="#120220"></path><path d="M425 0L279 0L294 98Z" fill="#7f1fdc" stroke="#7f1fdc"></path><path d="M130 0L134 77L207 76Z" fill="#3f1a79" stroke="#3f1a79"></path><path d="M207 76L134 77L134 173Z" fill="#7f1fdc" stroke="#7f1fdc"></path><path d="M0 175L0 335L138 273Z" fill="#211142" stroke="#211142"></path><path d="M714 460L739 380L611 388Z" fill="#120220" stroke="#120220"></path><path d="M600 0L492 84L563 137Z" fill="#190c30" stroke="#190c30"></path><path d="M0 175L138 273L134 173Z" fill="#341766" stroke="#341766"></path><path d="M114 398L0 515L129 537Z" fill="#341766" stroke="#341766"></path><path d="M0 335L0 372L114 398Z" fill="#211142" stroke="#211142"></path><path d="M811 60L668 115L685 191Z" fill="#211142" stroke="#211142"></path><path d="M685 191L668 115L631 186Z" fill="#631fb4" stroke="#631fb4"></path><path d="M279 0L225 0L207 76Z" fill="#211142" stroke="#211142"></path><path d="M574 600L668 600L607 472Z" fill="#190c30" stroke="#190c30"></path><path d="M714 460L776 401L739 380Z" fill="#120220" stroke="#120220"></path><path d="M811 286L792 228L683 300Z" fill="#341766" stroke="#341766"></path><path d="M797 472L776 401L714 460Z" fill="#190c30" stroke="#190c30"></path><path d="M0 372L0 515L114 398Z" fill="#7f1fdc" stroke="#7f1fdc"></path><path d="M0 97L0 175L134 173Z" fill="#3f1a79" stroke="#3f1a79"></path><path d="M0 97L134 173L134 77Z" fill="#341766" stroke="#341766"></path><path d="M668 115L600 0L563 137Z" fill="#7120c8" stroke="#7120c8"></path><path d="M225 0L130 0L207 76Z" fill="#7120c8" stroke="#7120c8"></path><path d="M811 286L683 300L739 380Z" fill="#561ea0" stroke="#561ea0"></path><path d="M668 115L660 0L600 0Z" fill="#341766" stroke="#341766"></path><path d="M668 600L797 472L714 460Z" fill="#341766" stroke="#341766"></path><path d="M776 401L811 286L739 380Z" fill="#2a1454" stroke="#2a1454"></path><path d="M900 368L811 286L776 401Z" fill="#211142" stroke="#211142"></path><path d="M0 515L0 600L114 600Z" fill="#211142" stroke="#211142"></path><path d="M811 60L660 0L668 115Z" fill="#4a1c8c" stroke="#4a1c8c"></path><path d="M0 0L0 97L134 77Z" fill="#3f1a79" stroke="#3f1a79"></path><path d="M130 0L0 0L134 77Z" fill="#3f1a79" stroke="#3f1a79"></path><path d="M668 600L830 600L797 472Z" fill="#7120c8" stroke="#7120c8"></path><path d="M797 472L900 368L776 401Z" fill="#190c30" stroke="#190c30"></path><path d="M900 195L811 60L792 228Z" fill="#7f1fdc" stroke="#7f1fdc"></path><path d="M792 228L811 60L685 191Z" fill="#341766" stroke="#341766"></path><path d="M900 195L792 228L811 286Z" fill="#120220" stroke="#120220"></path><path d="M900 521L900 368L797 472Z" fill="#2a1454" stroke="#2a1454"></path><path d="M900 368L900 285L811 286Z" fill="#7120c8" stroke="#7120c8"></path><path d="M900 285L900 195L811 286Z" fill="#4a1c8c" stroke="#4a1c8c"></path><path d="M830 600L900 521L797 472Z" fill="#120220" stroke="#120220"></path><path d="M900 0L804 0L811 60Z" fill="#631fb4" stroke="#631fb4"></path><path d="M811 60L804 0L660 0Z" fill="#211142" stroke="#211142"></path><path d="M830 600L900 600L900 521Z" fill="#341766" stroke="#341766"></path><path d="M900 195L900 84L811 60Z" fill="#341766" stroke="#341766"></path><path d="M900 84L900 0L811 60Z" fill="#561ea0" stroke="#561ea0"></path></g></svg>