<svg id="visual" viewBox="0 0 900 600" width="900" height="600" xmlns="http://www.w3.org/2000/svg" xmlns:xlink="http://www.w3.org/1999/xlink" version="1.1"><path d="M0 55L82 79L164 121L245 55L327 55L409 115L491 127L573 73L655 49L736 91L818 43L900 55L900 0L818 0L736 0L655 0L573 0L491 0L409 0L327 0L245 0L164 0L82 0L0 0Z" fill="#9900ff"></path><path d="M0 151L82 139L164 163L245 127L327 121L409 199L491 181L573 127L655 151L736 163L818 91L900 103L900 53L818 41L736 89L655 47L573 71L491 125L409 113L327 53L245 53L164 119L82 77L0 53Z" fill="#7014c3"></path><path d="M0 337L82 301L164 415L245 277L327 343L409 319L491 409L573 211L655 343L736 373L818 307L900 253L900 101L818 89L736 161L655 149L573 125L491 179L409 197L327 119L245 125L164 161L82 137L0 149Z" fill="#4b1589"></path><path d="M0 451L82 475L164 541L245 445L327 493L409 505L491 511L573 463L655 547L736 451L818 493L900 493L900 251L818 305L736 371L655 341L573 209L491 407L409 317L327 341L245 275L164 413L82 299L0 335Z" fill="#2c1052"></path><path d="M0 601L82 601L164 601L245 601L327 601L409 601L491 601L573 601L655 601L736 601L818 601L900 601L900 491L818 491L736 449L655 545L573 461L491 509L409 503L327 491L245 443L164 539L82 473L0 449Z" fill="#140021"></path></svg>